<?xml version="1.0" standalone="no"?>
<!DOCTYPE svg PUBLIC "-//W3C//DTD SVG 20010904//EN"
 "http://www.w3.org/TR/2001/REC-SVG-20010904/DTD/svg10.dtd">
<svg version="1.0" xmlns="http://www.w3.org/2000/svg"
 width="1254.000000pt" height="1254.000000pt" viewBox="0 0 1254.000000 1254.000000"
 preserveAspectRatio="xMidYMid meet">

<g transform="translate(0.000000,1254.000000) scale(0.100000,-0.100000)"
fill="#ffffff" stroke="none">
<path d="M3077 8583 c-3 -5 37 -92 88 -193 52 -102 94 -189 94 -195 0 -5 -6 2
-15 17 -8 15 -20 26 -27 24 -6 -1 -9 -1 -4 1 4 3 7 9 7 15 0 7 -5 7 -13 -1 -8
-6 -17 -7 -21 -3 -11 10 19 -51 182 -372 164 -323 1003 -2006 1444 -2895 219
-442 302 -601 309 -590 5 8 37 68 71 134 57 113 94 185 223 430 29 55 101 195
160 310 59 116 120 233 135 260 15 28 78 151 140 274 l112 224 -7 118 -7 117
-58 99 c-31 54 -122 209 -201 346 -79 136 -146 247 -149 247 -3 0 -41 -61 -84
-135 -44 -75 -80 -134 -81 -133 -4 5 -136 250 -345 638 -114 212 -216 401
-227 420 -11 19 -83 152 -161 295 -77 143 -176 325 -220 405 l-80 145 -630 3
c-347 1 -633 -1 -635 -5z"/>
<path d="M5599 8453 c-40 -71 -89 -156 -110 -191 -34 -57 -36 -66 -27 -95 6
-18 16 -39 23 -47 21 -25 77 -142 71 -148 -3 -3 -6 0 -6 6 0 20 -18 13 -25 -9
-6 -17 -9 -19 -16 -8 -5 8 -9 11 -9 7 0 -9 256 -520 383 -763 46 -88 143 -277
216 -420 193 -375 298 -580 434 -840 125 -240 190 -365 402 -780 70 -137 145
-281 165 -320 20 -38 63 -119 95 -180 32 -60 70 -132 85 -160 15 -27 44 -83
65 -122 21 -40 41 -73 44 -73 4 0 27 37 51 83 24 45 52 98 63 117 11 19 38 69
60 110 88 165 108 202 204 380 240 443 323 600 323 612 0 19 29 146 46 197 8
25 10 48 5 55 -4 6 -32 56 -61 111 -114 216 -158 298 -278 520 -68 127 -140
259 -159 295 -20 36 -50 92 -68 125 -18 33 -106 195 -195 360 -90 165 -198
363 -240 440 -43 77 -127 232 -188 345 -61 113 -149 275 -195 360 l-85 155
-500 3 -500 2 -73 -127z"/>
<path d="M8017 8573 c-3 -5 -47 -82 -99 -173 -52 -91 -125 -216 -161 -279
l-67 -113 14 -117 c12 -106 17 -124 58 -201 25 -47 72 -137 105 -200 55 -105
283 -537 406 -770 96 -183 122 -230 127 -230 5 0 51 82 143 255 54 101 107
200 177 330 47 86 105 196 160 300 117 221 144 273 180 340 39 73 83 156 215
410 44 83 71 144 62 137 -9 -8 -21 -11 -27 -7 -6 4 -18 -1 -26 -11 -23 -28 63
140 118 231 26 44 48 86 48 93 0 9 -150 12 -714 12 -393 0 -717 -3 -719 -7z
m-293 -648 c3 -8 1 -15 -4 -15 -6 0 -10 7 -10 15 0 8 2 15 4 15 2 0 6 -7 10
-15z"/>
<path d="M9356 8293 c-6 -14 -5 -15 5 -6 7 7 10 15 7 18 -3 3 -9 -2 -12 -12z"/>
</g>
</svg>

